<?xml version="1.0" encoding="UTF-8" standalone="no"?>
<svg
   id="Layer_1"
   data-name="Layer 1"
   width="74.739693"
   height="74.739693"
   viewBox="0 0 74.739692 74.739694"
   version="1.1"
   sodipodi:docname="logoSVG-square.svg"
   inkscape:version="1.3.2 (091e20e, 2023-11-25, custom)"
   inkscape:export-filename="logoSVG-square.png"
   inkscape:export-xdpi="513.7832"
   inkscape:export-ydpi="513.7832"
   xmlns:inkscape="http://www.inkscape.org/namespaces/inkscape"
   xmlns:sodipodi="http://sodipodi.sourceforge.net/DTD/sodipodi-0.dtd"
   xmlns="http://www.w3.org/2000/svg"
   xmlns:svg="http://www.w3.org/2000/svg">
  <defs
     id="defs33">
    <clipPath
       clipPathUnits="userSpaceOnUse"
       id="clipPath34">
      <rect
         style="opacity:0.57197;fill:#00ffff;stroke-width:5.66929;stroke-linecap:round;stroke-linejoin:round"
         id="rect35"
         width="74.739693"
         height="74.739693"
         x="1.2401543"
         y="0" />
    </clipPath>
  </defs>
  <sodipodi:namedview
     id="namedview33"
     pagecolor="#ffffff"
     bordercolor="#000000"
     borderopacity="0.25"
     inkscape:showpageshadow="2"
     inkscape:pageopacity="0.0"
     inkscape:pagecheckerboard="0"
     inkscape:deskcolor="#d1d1d1"
     inkscape:zoom="18.15635"
     inkscape:cx="37.342307"
     inkscape:cy="37.452461"
     inkscape:window-width="2493"
     inkscape:window-height="1864"
     inkscape:window-x="1881"
     inkscape:window-y="316"
     inkscape:window-maximized="0"
     inkscape:current-layer="Layer_1" />
  <rect
     width="77.220001"
     height="74.959999"
     rx="0"
     ry="0"
     style="fill:#237dae;stroke-width:0px"
     id="rect1"
     x="0"
     y="0"
     clip-path="url(#clipPath34)"
     transform="translate(-1.2401543)" />
  <path
     d="m 43.029846,13.82 c -0.73,0.22 -0.7,0.26 -0.64,1.06 0.16,2.27 1.37,3.07 3.04,4.45 0.33,0.27 0.64,0.57 0.97,0.85 0.19,0.16 0.21,0.3 0.05,0.51 -0.26,0.32 -0.5,0.66 -0.79,1.06 -1.57,-1.61 -3.24,-3.05 -3.82,-5.29 -0.25,-0.97 -0.32,-1.12 -0.17,-2.11 0.05,-0.32 -0.04,-0.47 -0.36,-0.6"
     style="fill:#ffffff;stroke-width:0px"
     id="path1" />
  <path
     d="m 47.049846,36.47 c -1,0 -2.01,0 -3.01,0 -0.3,0 -0.4,-0.11 -0.43,-0.39 -0.1,-1.03 -0.08,-1.06 0.96,-1.06 1.79,0 3.58,0.01 5.38,0 0.4,0 0.56,0.08 0.54,0.52 -0.04,1.14 0.09,0.91 -0.94,0.93 -0.83,0.01 -1.66,0 -2.49,0 z"
     style="fill:#ffffff;stroke-width:0px"
     id="path2" />
  <path
     d="m 43.799846,32.99 c 0.14,-0.43 0.23,-0.81 0.38,-1.16 0.05,-0.12 0.25,-0.24 0.39,-0.25 1.66,-0.02 3.33,-0.01 4.99,0 0.11,0 0.29,0.1 0.33,0.19 0.15,0.38 0.26,0.78 0.39,1.21 h -6.48 z"
     style="fill:#ffffff;stroke-width:0px"
     id="path3" />
  <path
     d="m 43.889846,38.51 c 0.23,-0.01 0.37,-0.03 0.51,-0.03 1.77,0 3.53,0 5.3,0 0.47,0 0.5,0.04 0.35,0.5 q -0.29,0.94 -1.28,0.94 c -1.32,0 -2.64,-0.01 -3.96,0 -0.33,0 -0.5,-0.1 -0.59,-0.41 -0.09,-0.31 -0.21,-0.62 -0.34,-1.01 z"
     style="fill:#ffffff;stroke-width:0px"
     id="path4" />
  <path
     d="m 49.259846,29.58 c -1.4,0 -2.66,0 -3.91,0 -0.13,0 -0.25,-0.01 -0.51,-0.03 0.32,-0.49 0.59,-0.92 0.89,-1.32 0.06,-0.08 0.26,-0.09 0.4,-0.09 0.6,0 1.2,-0.03 1.8,0.01 0.22,0.02 0.49,0.16 0.63,0.33 0.25,0.3 0.43,0.66 0.7,1.1 z"
     style="fill:#ffffff;stroke-width:0px"
     id="path5" />
  <path
     d="m 45.189846,41.96 h 3.76 c -0.17,0.66 -0.79,1.41 -1.16,1.41 -0.61,-0.01 -1.28,0.09 -1.81,-0.13 -0.39,-0.16 -0.59,-0.76 -0.87,-1.17 0.03,-0.04 0.06,-0.08 0.08,-0.11 z"
     style="fill:#ffffff;stroke-width:0px"
     id="path6" />
  <g
     id="g6"
     transform="translate(-1.2401543)">
    <line
       x1="62.970001"
       y1="25.620001"
       x2="55.75"
       y2="28.65"
       style="fill:#ffffff;stroke:#ffffff;stroke-width:2px;stroke-linecap:round;stroke-miterlimit:10"
       id="line6" />
    <rect
       x="59.400002"
       y="22.049999"
       width="7.1399999"
       height="7.1399999"
       rx="3.5699999"
       ry="3.5699999"
       transform="rotate(-2.94,63.097955,25.600423)"
       style="fill:#ffffff;stroke:#257dae;stroke-width:0.33px;stroke-miterlimit:10"
       id="rect6" />
  </g>
  <g
     id="g7"
     transform="translate(-1.2401543)">
    <line
       x1="65.32"
       y1="39.220001"
       x2="57.41"
       y2="38.560001"
       style="fill:#ffffff;stroke:#ffffff;stroke-width:2px;stroke-linecap:round;stroke-miterlimit:10"
       id="line7" />
    <rect
       x="61.75"
       y="35.650002"
       width="7.1399999"
       height="7.1399999"
       rx="3.5699999"
       ry="3.5699999"
       transform="rotate(27.04,65.318873,39.19812)"
       style="fill:#ffffff;stroke:#257dae;stroke-width:0.33px;stroke-miterlimit:10"
       id="rect7" />
  </g>
  <g
     id="g8"
     transform="translate(-1.2401543)">
    <line
       x1="60.560001"
       y1="52.169998"
       x2="53.950001"
       y2="47.580002"
       style="fill:#ffffff;stroke:#ffffff;stroke-width:2px;stroke-linecap:round;stroke-miterlimit:10"
       id="line8" />
    <rect
       x="56.990002"
       y="48.599998"
       width="7.1399999"
       height="7.1399999"
       rx="3.5699999"
       ry="3.5699999"
       transform="rotate(57.02,60.556177,52.162838)"
       style="fill:#ffffff;stroke:#257dae;stroke-width:0.33px;stroke-miterlimit:10"
       id="rect8" />
  </g>
  <g
     id="g9"
     transform="translate(-1.2401543)">
    <line
       x1="23.42"
       y1="58.630001"
       x2="27.889999"
       y2="52.169998"
       style="fill:#ffffff;stroke:#ffffff;stroke-width:2px;stroke-linecap:round;stroke-miterlimit:10"
       id="line9" />
    <rect
       x="19.860001"
       y="55.060001"
       width="7.1399999"
       height="7.1399999"
       rx="3.5699999"
       ry="3.5699999"
       transform="rotate(146.95,23.422312,58.630257)"
       style="fill:#ffffff;stroke:#257dae;stroke-width:0.33px;stroke-miterlimit:10"
       id="rect9" />
  </g>
  <g
     id="g10"
     transform="translate(-1.2401543)">
    <line
       x1="14.57"
       y1="48.049999"
       x2="21.9"
       y2="44.57"
       style="fill:#ffffff;stroke:#ffffff;stroke-width:2px;stroke-linecap:round;stroke-miterlimit:10"
       id="line10" />
    <rect
       x="11.01"
       y="44.48"
       width="7.1399999"
       height="7.1399999"
       rx="3.5699999"
       ry="3.5699999"
       transform="rotate(176.93,14.573917,48.044736)"
       style="fill:#ffffff;stroke:#257dae;stroke-width:0.33px;stroke-miterlimit:10"
       id="rect10" />
  </g>
  <g
     id="g11"
     transform="translate(-1.2401543)">
    <line
       x1="12.19"
       y1="34.459999"
       x2="20.41"
       y2="34.759998"
       style="fill:#ffffff;stroke:#ffffff;stroke-width:2px;stroke-linecap:round;stroke-miterlimit:10"
       id="line11" />
    <rect
       x="8.6300001"
       y="30.889999"
       width="7.1399999"
       height="7.1399999"
       rx="3.5699999"
       ry="3.5699999"
       transform="rotate(-153.09,12.192426,34.456408)"
       style="fill:#ffffff;stroke:#257dae;stroke-width:0.33px;stroke-miterlimit:10"
       id="rect11" />
  </g>
  <g
     id="g12"
     transform="translate(-1.2401543)">
    <line
       x1="16.92"
       y1="21.5"
       x2="23.559999"
       y2="26.07"
       style="fill:#ffffff;stroke:#ffffff;stroke-width:2px;stroke-linecap:round;stroke-miterlimit:10"
       id="line12" />
    <rect
       x="13.35"
       y="17.93"
       width="7.1399999"
       height="7.1399999"
       rx="3.5699999"
       ry="3.5699999"
       transform="rotate(-123.11,16.921317,21.494809)"
       style="fill:#ffffff;stroke:#257dae;stroke-width:0.33px;stroke-miterlimit:10"
       id="rect12" />
  </g>
  <g
     id="g13"
     transform="translate(-1.2401543)">
    <line
       x1="27.49"
       y1="12.63"
       x2="31.280001"
       y2="20.6"
       style="fill:#ffffff;stroke:#ffffff;stroke-width:2px;stroke-linecap:round;stroke-miterlimit:10"
       id="line13" />
    <rect
       x="23.93"
       y="9.0699997"
       width="7.1399999"
       height="7.1399999"
       rx="3.5699999"
       ry="3.5699999"
       transform="rotate(-93.13,27.495472,12.63562)"
       style="fill:#ffffff;stroke:#257dae;stroke-width:0.33px;stroke-miterlimit:10"
       id="rect13" />
  </g>
  <rect
     x="4.5166388"
     y="38.095421"
     width="7.1399999"
     height="7.1399999"
     rx="3.5699999"
     ry="3.5699999"
     transform="rotate(-63.15)"
     style="fill:#ffffff;stroke:#257dae;stroke-width:0.33px;stroke-miterlimit:10"
     id="rect14" />
  <path
     d="m 47.029846,47.44 c -0.05,-0.08 -0.44,-0.55 -0.9,-1.16 -0.9,-1.18 -2.96,-5.72 -3.54,-9.25 -0.49,-3 -0.1,-5.86 1.46,-8.51 1.41,-2.4 2.82,-4.8 4.22,-7.2 1.09,-1.86 3.92,-4.2 5,-6.06 0.15,-0.25 0.26,-0.32 0.57,-0.21 l -1.69,-2.06 c 0.12,0.55 0.44,1.06 0.69,1.65 0.01,-0.02 -0.02,0.04 -0.07,0.1 -1.45,1.92 -4.66,4.32 -6.09,6.26 -1.01,1.38 -2,2.77 -2.92,4.2 -0.88,1.36 -1.79,2.72 -2.45,4.19 -1.37,3.05 -1.35,6.24 -0.5,9.43 0.93,3.49 2.95,7.06 5.11,9.91 z"
     style="fill:#ffffff;stroke-width:0px"
     id="path14" />
  <g
     id="g16"
     transform="translate(-1.2401543)">
    <path
       d="m 47,49.43 c -0.11,0.17 -0.23,0.35 -0.34,0.52 -0.73,1.11 -5.44,3.17 -8.09,6.06 -0.9,0.99 -2.52,3.14 -2.62,4.5 0,0.13 0.38,0.31 0.23,0.36 h 1.3 c -0.14,-0.02 -0.27,-0.06 -0.41,-0.09 0,-0.08 0,-0.14 0,-0.19 0.02,-0.1 0.24,-0.2 0.27,-0.29 0.35,-1.2 1.17,-2.61 2.09,-3.69 2.6,-3.06 6.01,-4.48 7.07,-5 1.06,-0.52 1.41,-0.82 1.51,-0.94 l 0.41,-0.39 c 0,0 0.38,-0.46 0.49,-0.56 0.11,-0.1 0.98,-1.09 1.17,-1.28 0.19,-0.19 0.87,-1.06 0.88,-1.07 3.34,-4.17 4.69,-8.96 3.87,-14.32 -0.58,-3.76 -2,-7.1 -4.42,-10.02 -0.25,-0.31 -0.53,-0.6 -0.84,-0.94 -0.22,0.34 -0.42,0.62 -0.59,0.91 -0.49,0.82 -0.5,0.54 0.05,1.28 2.5,3.37 3.73,7.15 3.86,11.34 0.08,2.66 -0.4,5.18 -1.66,7.51 -0.55,1.02 -1.99,3.31 -2.61,4.29 l -0.26,0.34"
       style="fill:#ffffff;stroke-width:0px"
       id="path15" />
    <path
       d="m 49.75,59.03 c -0.23,0.12 0.67,-0.1 0.61,-0.36 -0.13,-0.63 0.55,-3.14 0.42,-4.27 -0.17,-1.45 -0.38,-3.5 -1.19,-4.76 l -0.88,0.89 c 0.78,0.97 0.78,3.65 0.88,4.68 0.12,1.21 -0.46,2.88 -0.12,3.95"
       style="fill:#ffffff;stroke-width:0px"
       id="path16" />
  </g>
  <g
     id="LqJFMI"
     transform="translate(-1.2401543)">
    <g
       id="g31">
      <path
         d="m 37.69,30.68 c 1.79,0.1 3.08,1.6 3.02,3.25 -0.07,1.88 -1.54,3.11 -3.23,3.06 -1.92,-0.05 -3.2,-1.62 -3.13,-3.31 0.08,-1.81 1.6,-3.11 3.34,-3 z"
         style="fill:#ffffff;stroke-width:0px"
         id="path17" />
      <path
         d="m 36.41,41.02 c -0.06,0.73 -0.32,1.36 -0.86,1.85 -0.62,0.57 -1.35,0.76 -2.19,0.66 -0.49,-0.06 -0.94,-0.23 -1.35,-0.49 -0.43,-0.27 -0.77,-0.62 -1.04,-1.05 -0.24,-0.38 -0.39,-0.79 -0.46,-1.23 -0.17,-1 0.26,-2.13 1.21,-2.68 0.89,-0.51 1.8,-0.5 2.72,-0.08 0.95,0.43 1.56,1.17 1.84,2.17 0.08,0.27 0.09,0.56 0.13,0.84 z"
         style="fill:#ffffff;stroke-width:0px"
         id="path18" />
      <path
         d="m 33.86,29.8 c -0.06,1.11 -0.5,1.94 -1.25,2.61 -0.52,0.47 -1.14,0.77 -1.84,0.79 -0.74,0.01 -1.37,-0.23 -1.78,-0.91 -0.48,-0.79 -0.41,-1.6 -0.1,-2.42 0.25,-0.65 0.67,-1.17 1.22,-1.59 0.57,-0.43 1.22,-0.67 1.93,-0.6 0.92,0.09 1.58,0.71 1.75,1.62 0.04,0.19 0.06,0.39 0.07,0.5 z"
         style="fill:#ffffff;stroke-width:0px"
         id="path19" />
      <path
         d="m 39.27,47.58 c -0.69,-0.03 -1.34,-0.21 -1.84,-0.76 -0.42,-0.46 -0.56,-1.01 -0.45,-1.62 0.12,-0.67 0.46,-1.21 0.96,-1.63 0.86,-0.73 1.87,-1.05 3,-0.84 0.59,0.11 1.1,0.4 1.44,0.92 0.32,0.49 0.38,1.03 0.23,1.6 -0.19,0.72 -0.65,1.24 -1.23,1.65 -0.62,0.44 -1.32,0.66 -2.11,0.68 z"
         style="fill:#ffffff;stroke-width:0px"
         id="path20" />
      <path
         d="m 37.75,23.11 c 0.42,0 1.07,0.15 1.62,0.61 0.42,0.35 0.61,0.95 0.37,1.48 -0.3,0.68 -0.85,1.05 -1.51,1.33 -0.47,0.2 -0.95,0.3 -1.45,0.31 -0.81,0.02 -1.58,-0.12 -2.18,-0.73 -0.31,-0.31 -0.43,-0.7 -0.32,-1.15 0.15,-0.58 0.54,-0.98 1.04,-1.27 0.66,-0.4 1.38,-0.59 2.43,-0.58 z"
         style="fill:#ffffff;stroke-width:0px"
         id="path21" />
      <path
         d="m 25.45,37.05 c 0.02,-0.81 0.16,-1.53 0.64,-2.14 0.61,-0.76 1.51,-0.75 2.12,-0.02 0.8,0.94 0.94,2.04 0.74,3.22 -0.09,0.5 -0.27,0.95 -0.6,1.34 -0.54,0.65 -1.36,0.68 -1.97,0.09 -0.58,-0.57 -0.82,-1.28 -0.91,-2.06 -0.02,-0.16 -0.03,-0.32 -0.04,-0.42 z"
         style="fill:#ffffff;stroke-width:0px"
         id="path22" />
      <path
         d="m 32.48,48.7 c -0.35,-0.09 -0.71,-0.14 -1.05,-0.28 -0.75,-0.3 -1.39,-0.77 -1.9,-1.41 -0.3,-0.37 -0.53,-0.76 -0.6,-1.24 -0.12,-0.83 0.35,-1.17 1.03,-1.2 0.52,-0.03 1,0.16 1.46,0.39 0.62,0.32 1.16,0.74 1.58,1.31 0.25,0.34 0.46,0.69 0.55,1.11 0.15,0.7 -0.25,1.23 -0.97,1.26 -0.03,0 -0.07,0 -0.1,0 0,0.02 0,0.04 -0.01,0.06 z"
         style="fill:#ffffff;stroke-width:0px"
         id="path23" />
      <path
         d="M 38.18,51.15 C 37.56,51.13 36.76,51 36.07,50.49 c -0.18,-0.13 -0.34,-0.32 -0.43,-0.52 -0.15,-0.35 0.01,-0.65 0.43,-0.92 0.47,-0.31 1,-0.41 1.55,-0.45 0.69,-0.05 1.37,0.02 2.02,0.25 0.31,0.11 0.62,0.28 0.88,0.48 0.54,0.42 0.46,1.04 -0.13,1.38 -0.61,0.35 -1.28,0.44 -2.2,0.43 z"
         style="fill:#ffffff;stroke-width:0px"
         id="path24" />
      <path
         d="m 28.78,26.7 c -0.02,0.57 -0.24,1.09 -0.53,1.56 -0.3,0.48 -0.63,0.93 -0.99,1.36 -0.26,0.32 -0.59,0.57 -0.97,0.74 -0.18,0.08 -0.37,0.12 -0.53,0 -0.17,-0.13 -0.18,-0.33 -0.16,-0.53 0.05,-0.58 0.3,-1.08 0.58,-1.57 0.38,-0.65 0.83,-1.25 1.43,-1.71 0.17,-0.13 0.37,-0.24 0.57,-0.32 0.36,-0.15 0.61,0.06 0.61,0.47 z"
         style="fill:#ffffff;stroke-width:0px"
         id="path25" />
      <path
         d="m 26.93,44.04 c -0.03,0.15 -0.05,0.3 -0.09,0.44 -0.05,0.18 -0.18,0.23 -0.36,0.17 -0.29,-0.1 -0.5,-0.31 -0.67,-0.54 -0.69,-0.91 -1.16,-1.93 -1.32,-3.07 -0.03,-0.22 0,-0.46 0.05,-0.69 0.05,-0.2 0.23,-0.29 0.4,-0.17 0.24,0.16 0.48,0.34 0.66,0.56 0.49,0.6 0.82,1.29 1.06,2.03 0.13,0.41 0.21,0.83 0.31,1.25 -0.01,0 -0.02,0 -0.03,0.01 z"
         style="fill:#ffffff;stroke-width:0px"
         id="path26" />
      <path
         d="m 33.43,22.18 c 0.15,-0.05 0.42,-0.14 0.49,-0.15 0.22,-0.01 0.5,-0.07 0.61,0.17 0.11,0.22 -0.08,0.42 -0.24,0.57 -0.59,0.58 -1.28,1.02 -2.06,1.32 -0.47,0.18 -0.96,0.3 -1.44,0.43 -0.09,0.03 -0.2,0 -0.3,0 -0.27,-0.01 -0.43,-0.15 -0.23,-0.49 0.07,-0.12 3.05,-1.79 3.16,-1.85"
         style="fill:#ffffff;stroke-width:0px"
         id="path27" />
      <path
         d="m 40.64,21.11 c 0.62,0.05 1.07,0.09 1.14,0.11 0.37,0.11 0.55,0.2 0.95,0.33 0.03,0 0.06,0.01 0.1,0.02 v 0 c 0.18,0.31 0.1,0.43 -0.28,0.51 -0.69,0.14 -1.38,0.12 -2.06,0.03 -0.56,-0.08 -1.11,-0.23 -1.67,-0.35 -0.12,-0.03 -0.23,-0.09 -0.34,-0.15 -0.13,-0.07 -0.21,-0.12 -0.22,-0.19 -0.01,-0.1 -0.06,-0.26 0.35,-0.3 0.41,-0.04 1.42,-0.05 2.04,0 z"
         style="fill:#ffffff;stroke-width:0px"
         id="path28" />
      <path
         d="m 24.6,31.7 c 0.1,0.09 0.12,0.31 0.12,0.47 0.03,1.22 -0.18,2.4 -0.59,3.55 -0.04,0.12 -0.1,0.23 -0.18,0.33 -0.05,0.07 -0.14,0.11 -0.21,0.16 -0.05,-0.07 -0.13,-0.14 -0.14,-0.22 -0.03,-0.24 -0.05,-0.48 -0.05,-0.71 0.02,-1.04 0.2,-2.05 0.54,-3.04 0.19,-0.54 0.26,-0.51 0.5,-0.54"
         style="fill:#ffffff;stroke-width:0px"
         id="path29" />
      <path
         d="m 40.96,51.86 c -0.1,0 -0.2,0.01 -0.3,0 -0.06,0 -0.12,-0.06 -0.18,-0.09 0.04,-0.06 0.06,-0.14 0.11,-0.17 0.17,-0.1 0.35,-0.2 0.53,-0.27 0.96,-0.37 1.96,-0.61 2.98,-0.74 0.2,-0.03 0.4,-0.02 0.6,-0.01 0.07,0 0.13,0.06 0.2,0.1 -0.04,0.05 -0.07,0.14 -0.13,0.16 -0.44,0.19 -0.86,0.41 -1.32,0.54 -0.68,0.19 -1.38,0.31 -2.07,0.46 -0.14,0.03 -0.28,0.03 -0.42,0.04 v 0 z"
         style="fill:#ffffff;stroke-width:0px"
         id="path30" />
      <path
         d="m 33.38,50.86 c -0.47,0.09 -3.4,-1.55 -3.86,-2.22 0.13,0.03 0.27,0.04 0.4,0.09 1.17,0.51 2.28,1.13 3.3,1.91 0.07,0.06 0.15,0.1 0.23,0.16 -0.02,0.02 -0.04,0.05 -0.06,0.07 z"
         style="fill:#ffffff;stroke-width:0px"
         id="path31" />
    </g>
  </g>
  <rect
     x="35.163517"
     y="36.232964"
     width="7.1399999"
     height="7.1399999"
     rx="3.5699999"
     ry="3.5699999"
     transform="rotate(-30.99)"
     style="fill:#ffffff;stroke:#257dae;stroke-width:0.33px;stroke-miterlimit:10"
     id="rect31" />
  <rect
     x="36.973427"
     y="-63.632019"
     width="7.1399999"
     height="7.1399999"
     rx="3.5699999"
     ry="3.5699999"
     transform="rotate(116.97)"
     style="fill:#ffffff;stroke:#257dae;stroke-width:0.33px;stroke-miterlimit:10"
     id="rect32" />
  <rect
     x="59.900669"
     y="-49.02919"
     width="7.1399999"
     height="7.1399999"
     rx="3.5699999"
     ry="3.5699999"
     transform="rotate(87)"
     style="fill:#ffffff;stroke:#257dae;stroke-width:0.33px;stroke-miterlimit:10"
     id="rect33" />
</svg>
