<?xml version="1.0" encoding="UTF-8" standalone="no"?>
<!-- Generator: Adobe Illustrator 16.0.0, SVG Export Plug-In . SVG Version: 6.00 Build 0)  -->

<svg
   version="1.1"
   id="Layer_1"
   x="0px"
   y="0px"
   width="496.39801"
   height="496.36551"
   viewBox="0 0 496.39801 496.36551"
   enable-background="new 0 0 1000 1000"
   xml:space="preserve"
   sodipodi:docname="VYM_logo.svg"
   inkscape:version="1.3.2 (091e20e, 2023-11-25, custom)"
   xmlns:inkscape="http://www.inkscape.org/namespaces/inkscape"
   xmlns:sodipodi="http://sodipodi.sourceforge.net/DTD/sodipodi-0.dtd"
   xmlns="http://www.w3.org/2000/svg"
   xmlns:svg="http://www.w3.org/2000/svg"><defs
   id="defs37" /><sodipodi:namedview
   id="namedview37"
   pagecolor="#ffffff"
   bordercolor="#000000"
   borderopacity="0.25"
   inkscape:showpageshadow="2"
   inkscape:pageopacity="0.0"
   inkscape:pagecheckerboard="0"
   inkscape:deskcolor="#d1d1d1"
   inkscape:zoom="0.91393552"
   inkscape:cx="374.75292"
   inkscape:cy="364.35831"
   inkscape:window-width="2658"
   inkscape:window-height="1877"
   inkscape:window-x="1573"
   inkscape:window-y="609"
   inkscape:window-maximized="0"
   inkscape:current-layer="Layer_1" />

<g
   id="g37"
   transform="translate(-251.99026,-198.16022)">
	
	<g
   id="g22">
		
			<linearGradient
   id="SVGID_1_"
   gradientUnits="userSpaceOnUse"
   x1="251.9912"
   y1="402.418"
   x2="748.38672"
   y2="402.418"
   gradientTransform="matrix(1,0,0,-1,0,1001)">
			<stop
   offset="0"
   style="stop-color:#6217C4"
   id="stop15" />
			<stop
   offset="0.2688"
   style="stop-color:#E203AA"
   id="stop16" />
			<stop
   offset="0.5914"
   style="stop-color:#921FCF"
   id="stop17" />
			<stop
   offset="1"
   style="stop-color:#0050DC"
   id="stop18" />
		</linearGradient>
		<path
   fill="url(#SVGID_1_)"
   d="m 500.188,618.271 c -75.234,0 -139.173,-48.332 -162.488,-115.635 h -16.355 c -0.177,4.918 -2.757,8.487 -8.219,10.874 -6.459,2.823 -13.183,5.094 -19.478,8.232 -8.233,4.106 -15.418,4.853 -23.313,-1.529 -6.305,-5.096 -13.545,-2.488 -16.634,4.441 -5.773,12.945 3.851,35.851 17.101,40.69 5.942,2.17 11.092,0.191 13.683,-5.577 0.966,-2.152 1.477,-4.58 1.798,-6.938 0.716,-5.243 3.32,-8.956 8.206,-10.989 8.893,-3.704 17.758,-7.473 26.718,-11.01 6.136,-2.421 11.566,-0.416 15.233,5.044 6.608,9.841 13.261,19.656 19.959,29.442 3.004,4.386 3.948,9.267 0.87,13.525 -4.95,6.851 -10.215,13.391 -20.687,11.121 -6.654,-1.438 -10.369,3.124 -9.28,9.881 1.427,8.84 10.981,18.246 19.843,19.536 6.097,0.885 10.64,-2.777 9.412,-8.852 -1.753,-8.662 2.338,-14.071 8.152,-19.194 5.342,-4.708 11.04,-4.948 16.888,-0.877 9.308,6.478 18.686,12.861 28.182,19.059 6.27,4.093 8.438,9.425 5.717,16.303 -3.481,8.791 -7.135,17.52 -10.793,26.24 -2.036,4.857 -5.717,7.574 -11.012,8.149 -1.868,0.205 -3.767,0.553 -5.532,1.178 -6.992,2.476 -9.57,8.553 -6.629,15.311 5.468,12.566 27.243,21.492 39.872,16.348 6.634,-2.703 9.07,-8.61 6.046,-15.148 -0.924,-2.003 -2.329,-3.803 -3.643,-5.602 -2.754,-3.774 -3.529,-7.912 -1.827,-12.209 3.678,-9.272 7.43,-18.521 11.452,-27.647 2.633,-5.973 8.123,-8.231 14.489,-6.952 11.623,2.339 23.271,4.53 34.926,6.695 5.302,0.985 9.473,4.394 10.153,9.615 1.084,8.294 1.726,16.396 -7.152,21.898 -5.264,3.266 -4.843,9.055 -0.031,12.988 6.953,5.683 21.65,5.707 28.653,0.047 4.729,-3.824 5.446,-9.547 0.509,-12.599 -7.842,-4.855 -8.53,-11.803 -8.002,-19.683 0.477,-7.124 4.4,-11.176 11.44,-12.393 11.002,-1.904 21.988,-3.955 32.901,-6.311 7.857,-1.694 12.965,0.518 16.155,8.001 3.17,7.435 5.908,15.069 9.38,22.358 3.243,6.816 2.716,12.459 -1.98,18.605 -6.911,9.051 -2.444,18.399 8.949,19.483 12.054,1.148 22.366,-2.914 30.822,-11.486 3.887,-3.938 6.717,-8.64 4.852,-14.392 -1.922,-5.923 -7.196,-7.483 -12.698,-8.098 -5.532,-0.612 -9.198,-3.463 -11.291,-8.52 -3.552,-8.582 -7.176,-17.133 -10.638,-25.753 -2.68,-6.672 -0.718,-12.16 5.17,-16.078 9.728,-6.472 19.384,-13.052 29.012,-19.668 4.854,-3.335 10.588,-3.752 14.859,-0.224 6.307,5.212 12.111,10.512 9.883,20.387 -1.409,6.249 3.386,10.023 9.752,8.95 8.941,-1.509 18.226,-10.863 19.627,-19.776 0.962,-6.145 -2.664,-10.884 -8.652,-9.581 -9.223,2.013 -14.679,-2.713 -19.899,-8.788 -4.079,-4.749 -4.283,-10.459 -0.735,-15.669 6.677,-9.8 13.339,-19.605 19.917,-29.47 3.649,-5.471 9.086,-7.628 15.185,-5.236 9.283,3.645 18.465,7.545 27.648,11.439 4.319,1.835 6.528,5.348 7.347,9.902 0.452,2.519 0.836,5.136 1.84,7.454 2.607,6.022 7.92,8.021 14.047,5.631 13.068,-5.105 22.448,-27.55 16.886,-40.41 -2.655,-6.135 -8.245,-8.562 -14.387,-5.972 -2.183,0.921 -4.165,2.391 -6.103,3.795 -3.932,2.847 -8.149,3.679 -12.664,1.849 -9.086,-3.683 -18.173,-7.372 -27.152,-11.296 -4.728,-2.063 -7.25,-5.928 -7.492,-10.551 h -16.281 c -23.311,67.31 -87.251,115.642 -162.487,115.642 z"
   id="path18"
   style="fill:url(#SVGID_1_)" />
		
			<linearGradient
   id="SVGID_2_"
   gradientUnits="userSpaceOnUse"
   x1="252.0215"
   y1="706.38281"
   x2="748.21777"
   y2="706.38281"
   gradientTransform="matrix(1,0,0,-1,0,1001)">
			<stop
   offset="0.1237"
   style="stop-color:#6AA84F"
   id="stop19" />
			<stop
   offset="0.365"
   style="stop-color:#F1C232"
   id="stop20" />
			<stop
   offset="0.67"
   style="stop-color:#E69138"
   id="stop21" />
			<stop
   offset="1"
   style="stop-color:#CC0000"
   id="stop22" />
		</linearGradient>
		<path
   fill="url(#SVGID_2_)"
   d="m 500.188,274.418 c 75.616,0 139.831,48.818 162.849,116.655 h 15.994 c -0.089,-5.329 2.408,-9.414 7.851,-11.76 8.683,-3.749 17.466,-7.27 26.221,-10.853 4.669,-1.91 9.075,-1.435 13.15,1.636 1.234,0.931 2.464,1.893 3.8,2.661 7.973,4.569 15.242,1.63 17.43,-7.334 0.759,-3.107 0.911,-6.531 0.544,-9.717 -1.281,-11.086 -5.834,-20.577 -15.414,-26.819 -7.958,-5.185 -15.362,-2.042 -17.849,7.116 -0.359,1.318 -0.604,2.684 -0.758,4.043 -0.596,5.298 -3.428,8.905 -8.274,10.925 -8.731,3.636 -17.456,7.29 -26.252,10.764 -6.459,2.555 -11.852,0.623 -15.66,-5.06 -6.6,-9.85 -13.268,-19.655 -19.953,-29.446 -3.538,-5.178 -3.31,-10.94 0.734,-15.675 5.225,-6.118 10.734,-10.747 19.92,-8.812 6.007,1.264 9.566,-3.38 8.632,-9.586 -1.361,-9.077 -11.147,-18.682 -20.157,-19.784 -6.009,-0.733 -10.436,2.711 -9.231,8.509 1.784,8.601 -2.004,14.111 -7.871,19.29 -5.518,4.873 -11.307,5.177 -17.296,0.986 -9.292,-6.501 -18.685,-12.866 -28.167,-19.086 -6.231,-4.088 -8.292,-9.439 -5.522,-16.361 3.454,-8.624 7.071,-17.179 10.613,-25.766 2.098,-5.082 5.853,-7.896 11.339,-8.489 1.699,-0.184 3.423,-0.495 5.037,-1.044 7.476,-2.537 10.102,-8.978 6.641,-16.057 -5.875,-12.017 -26.182,-20.366 -38.784,-15.947 -7.476,2.621 -10.096,8.943 -6.52,16.047 0.92,1.823 2.229,3.461 3.434,5.131 2.729,3.787 3.413,7.896 1.663,12.211 -3.743,9.246 -7.478,18.502 -11.505,27.627 -2.516,5.703 -7.989,8.104 -14.084,6.903 -11.797,-2.325 -23.603,-4.613 -35.41,-6.875 -4.816,-0.922 -8.187,-3.598 -9.748,-8.215 -2.896,-8.577 -0.294,-17.111 6.775,-22.894 5.081,-4.156 5.091,-9.396 0.024,-13.436 -7.109,-5.666 -21.646,-5.573 -28.647,0.183 -4.608,3.788 -5.154,9.5 -0.196,12.633 7.534,4.764 8.441,11.505 7.928,19.241 -0.492,7.421 -4.302,11.371 -11.74,12.7 -11.16,1.991 -22.292,4.18 -33.387,6.501 -6.94,1.452 -12.279,-0.894 -15.162,-7.452 -2.837,-6.454 -5.086,-13.19 -8.225,-19.484 -4.176,-8.373 -5.141,-15.721 1.427,-23.815 4.986,-6.147 2.483,-13.215 -4.126,-16.373 -12.837,-6.132 -36.266,3.574 -41.102,17.027 -2.139,5.95 -0.123,11.083 5.705,13.614 2.314,1.006 4.934,1.389 7.452,1.837 4.76,0.848 8.306,3.239 10.197,7.75 3.79,9.04 7.643,18.06 11.21,27.188 2.401,6.146 0.316,11.558 -5.145,15.217 -9.849,6.601 -19.661,13.257 -29.445,19.953 -5.329,3.646 -11.165,3.296 -16.072,-0.973 -5.949,-5.176 -10.33,-10.613 -8.498,-19.55 1.258,-6.125 -3.162,-9.546 -9.485,-8.681 -8.865,1.215 -18.443,10.676 -19.765,19.523 -0.992,6.643 2.394,10.991 8.857,9.788 8.146,-1.517 13.439,1.916 18.443,7.501 5.347,5.968 5.663,11.563 1.066,18.085 -6.435,9.129 -12.664,18.408 -18.753,27.77 -4.008,6.159 -9.449,8.306 -16.362,5.552 -8.785,-3.499 -17.493,-7.195 -26.222,-10.836 -4.703,-1.962 -7.267,-5.562 -7.995,-10.574 -0.271,-1.863 -0.522,-3.77 -1.124,-5.539 -2.567,-7.574 -8.84,-10.153 -15.994,-6.691 -12.019,5.816 -20.427,26.163 -16.012,38.749 2.648,7.554 8.85,10.144 16.019,6.564 1.829,-0.915 3.495,-2.182 5.147,-3.407 3.784,-2.803 7.947,-3.388 12.215,-1.688 9.265,3.692 18.509,7.455 27.625,11.493 4.873,2.158 7.329,6.422 7.231,11.364 h 15.892 c 23.018,-67.84 87.231,-116.658 162.847,-116.658 z"
   id="path22"
   style="fill:url(#SVGID_2_)" />
	</g>
	
		<linearGradient
   id="SVGID_3_"
   gradientUnits="userSpaceOnUse"
   x1="268.35791"
   y1="762.30182"
   x2="29.827499"
   y2="755.67578"
   gradientTransform="matrix(1,0,0,-1,388,1210)">
		<stop
   offset="0"
   style="stop-color:#C00384"
   id="stop23" />
		<stop
   offset="0.435"
   style="stop-color:#5E2390"
   id="stop24" />
		<stop
   offset="1"
   style="stop-color:#303A99"
   id="stop25" />
	</linearGradient>
	<path
   fill="url(#SVGID_3_)"
   d="m 617.082,494.086 v -64.523 l -28.958,38.612 h -3.303 l -28.323,-38.74 v 64.651 H 539.73 v -88.911 h 19.305 l 27.818,38.23 27.818,-38.23 h 19.179 v 88.911 z"
   id="path25"
   style="fill:url(#SVGID_3_)" />
	
		<linearGradient
   id="SVGID_4_"
   gradientUnits="userSpaceOnUse"
   x1="-28.0142"
   y1="760.37012"
   x2="62.919899"
   y2="760.37012"
   gradientTransform="matrix(1,0,0,-1,388,1210)">
		<stop
   offset="0"
   style="stop-color:#C00384"
   id="stop26" />
		<stop
   offset="0.435"
   style="stop-color:#5E2390"
   id="stop27" />
		<stop
   offset="1"
   style="stop-color:#303A99"
   id="stop28" />
	</linearGradient>
	<path
   fill="url(#SVGID_4_)"
   d="m 450.92,405.175 -36.804,88.91 H 396.79 l -36.804,-88.91 h 18.718 l 26.686,68.927 26.813,-68.927 z"
   id="path28"
   style="fill:url(#SVGID_4_)" />
	<g
   id="g36">
		
			<linearGradient
   id="SVGID_5_"
   gradientUnits="userSpaceOnUse"
   x1="523.95898"
   y1="633.87891"
   x2="527.59003"
   y2="540.38049"
   gradientTransform="matrix(1,0,0,-1,0,1001)">
			<stop
   offset="0"
   style="stop-color:#6AC8B6"
   id="stop29" />
			<stop
   offset="1"
   style="stop-color:#009CCD"
   id="stop30" />
		</linearGradient>
		<path
   fill="url(#SVGID_5_)"
   d="m 501.442,449.225 c -0.001,-18.77 0.066,-37.542 -0.049,-56.311 -0.027,-4.57 1.161,-8.56 3.874,-12.171 10.095,-13.435 20.154,-26.899 30.299,-40.296 1.608,-2.121 3.33,-4.181 6.493,-4.306 6.085,-0.242 9.828,4.951 7.32,10.549 -0.726,1.618 -1.84,3.088 -2.92,4.515 -8.789,11.598 -17.545,23.223 -26.469,34.715 -2.423,3.118 -3.537,6.286 -3.523,10.286 0.122,35.587 0.087,50.577 0.051,86.166 -10e-4,2.076 -0.125,4.223 -0.653,6.217 -1.088,4.134 -4.534,6.565 -8.242,6.17 -3.916,-0.421 -6.142,-3.14 -6.155,-8.024 -0.055,-19.368 -0.022,-18.14 -0.026,-37.51 z"
   id="path30"
   style="fill:url(#SVGID_5_)" />
		
			<linearGradient
   id="SVGID_6_"
   gradientUnits="userSpaceOnUse"
   x1="467.23141"
   y1="632.04492"
   x2="470.86899"
   y2="538.37457"
   gradientTransform="matrix(1,0,0,-1,0,1001)">
			<stop
   offset="0"
   style="stop-color:#6AC8B6"
   id="stop31" />
			<stop
   offset="1"
   style="stop-color:#009CCD"
   id="stop32" />
		</linearGradient>
		<path
   fill="url(#SVGID_6_)"
   d="m 491.57,448.939 c 0,18.479 0.004,16.355 -0.008,34.834 -0.001,1.499 0.048,3.027 -0.204,4.493 -0.646,3.785 -4.154,6.603 -7.624,6.287 -3.648,-0.33 -6.72,-3.386 -6.763,-7.19 -0.114,-10.215 -0.061,-15.057 -0.059,-25.272 0.01,-27.189 -0.007,-39.154 0.108,-66.344 0.015,-3.338 -0.82,-6.041 -2.855,-8.688 -9.697,-12.612 -19.267,-25.32 -28.845,-38.02 -0.893,-1.183 -1.798,-2.471 -2.231,-3.857 -0.959,-3.084 0.558,-6.555 3.282,-8.171 2.875,-1.708 7.216,-1.239 9.475,1.405 2.725,3.188 5.167,6.619 7.692,9.972 7.494,9.952 14.887,19.979 22.487,29.849 3.818,4.96 5.706,10.229 5.605,16.627 -0.28,18.022 -0.096,36.051 -0.096,54.077 0.011,-0.002 0.024,-0.002 0.036,-0.002 z"
   id="path32"
   style="fill:url(#SVGID_6_)" />
		
			<linearGradient
   id="SVGID_7_"
   gradientUnits="userSpaceOnUse"
   x1="545.24512"
   y1="630.74219"
   x2="549.35132"
   y2="525.00598"
   gradientTransform="matrix(1,0,0,-1,0,1001)">
			<stop
   offset="0"
   style="stop-color:#6AC8B6"
   id="stop33" />
			<stop
   offset="1"
   style="stop-color:#009CCD"
   id="stop34" />
		</linearGradient>
		<path
   fill="url(#SVGID_7_)"
   d="m 560.355,348.913 c 2.917,0.544 5.526,1.589 6.896,4.444 1.293,2.703 0.782,5.206 -1.024,7.563 -6.836,8.917 -13.638,17.857 -20.446,26.794 -3.088,4.054 -6.161,8.121 -9.237,12.182 -3.191,4.21 -6.496,5.14 -9.896,2.777 -4.092,-2.845 -4.87,-7.525 -1.728,-11.751 5.813,-7.816 11.738,-15.543 17.626,-23.304 3.895,-5.135 7.798,-10.259 11.688,-15.395 1.543,-2.04 3.598,-3.094 6.121,-3.31 z"
   id="path34"
   style="fill:url(#SVGID_7_)" />
		
			<linearGradient
   id="SVGID_8_"
   gradientUnits="userSpaceOnUse"
   x1="447.64359"
   y1="626.95117"
   x2="451.74969"
   y2="521.2146"
   gradientTransform="matrix(1,0,0,-1,0,1001)">
			<stop
   offset="0"
   style="stop-color:#6AC8B6"
   id="stop35" />
			<stop
   offset="1"
   style="stop-color:#009CCD"
   id="stop36" />
		</linearGradient>
		<path
   fill="url(#SVGID_8_)"
   d="m 433.758,348.936 c 0.948,0.603 3.014,1.376 4.288,2.837 3.242,3.718 6.154,7.727 9.153,11.652 6.908,9.047 13.759,18.138 20.7,27.159 2.072,2.69 3.076,5.383 1.506,8.695 -2.401,5.079 -7.982,6.214 -11.653,2.002 -3.438,-3.943 -6.465,-8.242 -9.648,-12.403 -6.733,-8.802 -13.454,-17.616 -20.173,-26.429 -0.542,-0.714 -1.083,-1.441 -1.538,-2.214 -3.006,-5.122 0.308,-11.055 7.365,-11.299 z"
   id="path36"
   style="fill:url(#SVGID_8_)" />
	</g>
</g>
</svg>
